<svg version="1.1" xmlns="http://www.w3.org/2000/svg" xmlns:xlink="http://www.w3.org/1999/xlink" width="255.17392" height="249.74469" viewBox="0,0,255.17392,249.74469"><g transform="translate(-115.00001,-55.16666)"><g data-paper-data="{&quot;isPaintingLayer&quot;:true}" fill-rule="nonzero" stroke="none" stroke-width="0" stroke-linecap="butt" stroke-linejoin="miter" stroke-miterlimit="10" stroke-dasharray="" stroke-dashoffset="0" style="mix-blend-mode: normal"><path d="M115.00002,304.91136v-249.74469h255.17392v249.74469z" data-paper-data="{&quot;origPos&quot;:null}" fill="#ffffff"/><path d="M152.00024,227.01817c0,-50.88955 -17.72742,-148.93687 32.79306,-148.93687c50.52047,0 135.19983,19.23246 135.19983,70.12179c0,50.88955 46.49318,126.91536 -4.02724,126.91536c-50.52047,0 -163.96553,2.78938 -163.96553,-48.10017z" data-paper-data="{&quot;origPos&quot;:null}" fill="#3da3ff"/><path d="M163.65679,125.95844c1.03965,-6.13656 31.70107,-14.08837 61.6815,-18.61993c7.77917,-1.17581 36.39089,-0.39335 54.30155,5.33232c27.1814,8.68927 41.26814,107.77731 41.26814,135.76338c0,40.19456 -94.22052,-11.45226 -129.78091,-11.45226c-35.55995,0 -27.81716,-108.97826 -27.47066,-111.02345z" data-paper-data="{&quot;origPos&quot;:null}" fill="#ffffff"/><path d="M173.76605,131.50167c0.87954,-5.49834 26.81878,-12.62312 52.18193,-16.68343c6.58115,-1.05354 30.78641,-0.35242 45.93874,4.77777c22.9953,7.78563 34.91251,96.56813 34.91251,121.64412c0,36.01443 -79.70981,-10.26125 -109.79319,-10.26125c-30.08348,0 -23.53317,-97.64419 -23.23994,-99.4771z" data-paper-data="{&quot;origPos&quot;:null}" fill="#3da3ff"/><path d="M186.42159,152.87113c0.69413,-5.10565 17.31887,-23.01652 37.3358,-26.7868c5.19393,-0.9783 35.83755,24.77267 47.79597,29.53649c18.14813,7.22951 16.01287,50.76582 16.01287,74.05038c0,33.44196 -47.52071,-17.05832 -71.26301,-17.05832c-23.7422,0 -30.11324,-58.04012 -29.88179,-59.74164z" data-paper-data="{&quot;origPos&quot;:null}" fill="#ffffff"/><path d="M196.67741,155.63462c0.54466,-4.43736 13.58937,-20.0039 29.29576,-23.28061c4.07546,-0.85022 28.12016,21.53011 37.5034,25.67039c14.24012,6.2832 12.56465,44.12098 12.56465,64.35758c0,29.06474 -37.28742,-14.82555 -55.91675,-14.82555c-18.62948,0 -23.62845,-50.44289 -23.447,-51.92203z" data-paper-data="{&quot;origPos&quot;:null}" fill="#3da3ff"/></g></g></svg>